HIERARCHY
ROOT Spine
{
    OFFSET 0.0 0.0 -0.0
    CHANNELS 6 Xposition Yposition Zposition Zrotation Xrotation Yrotation
    JOINT ShoulderCenter
    {
        OFFSET 0.0 0.21187366545200348 0.0
        CHANNELS 3 Zrotation Xrotation Yrotation
        JOINT LeftShoulder
        {
            OFFSET 0.17135795950889587 0.0 0.0
            CHANNELS 3 Zrotation Xrotation Yrotation
            JOINT LeftElbow
            {
                OFFSET 0.23362284898757935 0.0 0.0
                CHANNELS 3 Zrotation Xrotation Yrotation
                JOINT LeftHand
                {
                    OFFSET 0.27495038509368896 0.0 0.0
                    CHANNELS 3 Zrotation Xrotation Yrotation
                    End Site
                    {
                        OFFSET 0.10998015850782394 0.0 0.0
                    }
                }
            }
        }
        JOINT RightShoulder
        {
            OFFSET -0.17135795950889587 0.0 0.0
            CHANNELS 3 Zrotation Xrotation Yrotation
            JOINT RightElbow
            {
                OFFSET -0.23362284898757935 0.0 0.0
                CHANNELS 3 Zrotation Xrotation Yrotation
                JOINT RightHand
                {
                    OFFSET -0.27495038509368896 0.0 0.0
                    CHANNELS 3 Zrotation Xrotation Yrotation
                    End Site
                    {
                        OFFSET -0.10998015850782394 0.0 0.0
                    }
                }
            }
        }
        End Site
        {
            OFFSET 0.0 0.08474946767091751 0.0
        }
    }
    JOINT LeftHip
    {
        OFFSET 0.20391616794428707 -0.20391616794428707 0.0
        CHANNELS 3 Zrotation Xrotation Yrotation
        JOINT LeftKnee
        {
            OFFSET 0.0 -0.2868530750274658 0.0
            CHANNELS 3 Zrotation Xrotation Yrotation
            JOINT LeftFoot
            {
                OFFSET 0.0 -0.3977442979812622 0.0
                CHANNELS 3 Zrotation Xrotation Yrotation
                End Site
                {
                    OFFSET 0.0 0.0 0.15909773111343384
                }
            }
        }
    }
    JOINT RightHip
    {
        OFFSET -0.20391616794428707 -0.20391616794428707 0.0
        CHANNELS 3 Zrotation Xrotation Yrotation
        JOINT RightKnee
        {
            OFFSET 0.0 -0.2868530750274658 0.0
            CHANNELS 3 Zrotation Xrotation Yrotation
            JOINT RightFoot
            {
                OFFSET 0.0 -0.3977442979812622 0.0
                CHANNELS 3 Zrotation Xrotation Yrotation
                End Site
                {
                    OFFSET 0.0 0.0 0.15909773111343384
                }
            }
        }
    }
}
MOTION
Frames: 12
Frame Time: 0.03333333333333333
-0.22194689512252808 0.21485769748687744 3.626065969467163 -1.3747026166503058 -13.64340811487176 -158.3905072718676 2.0233067360058722e-07 5.521402259622901e-07 -0.3874887278044467 92.76743127381071 -9.518498447614258 -169.06700403387597 -3.7440506438356705e-06 2.689245769332802e-06 67.23745648970537 0.0 0.0 0.0 -116.49687066093801 -33.05544288863261 115.5675367699753 -2.8047435844726695e-06 7.041223851693288e-07 -123.93304661750246 1.5902773407317584e-15 -4.4139062980501586e-32 -3.1805546814635168e-15 -0.5057321314773198 7.643334135587235 -52.70514911650772 0.028987338016315853 -8.683692366486731 24.114566692432877 -9.93923337957349e-17 -8.620910738379216e-35 9.93923337957349e-17 -4.399983304405416 8.750922104552085 46.55616212475722 0.5537324325630456 -9.800134266205431 -22.189209224053684 1.5902773407317584e-15 1.3793457181406746e-32 9.93923337957349e-16
-0.22154100239276886 0.21476860344409943 3.626296043395996 -1.5543039894869153 -13.624406869384595 -158.37204758839823 -2.0308604511569115e-08 2.314044829996152e-07 -0.5394419520408544 92.39106472496749 -8.954711403607792 -168.8257783482146 -4.5825216796197055e-06 -3.462299279390185e-06 66.83397989031954 0.0 6.3611093629270335e-15 0.0 -115.47490668970845 -33.116331742286306 116.5510038989401 -2.8754022693795657e-06 -2.720397277813588e-06 -124.31417979002143 4.770832022195274e-15 0.0 0.0 -0.7610615474278973 7.651214759611414 -51.82380473073406 13.749957277154916 -14.074125292011741 69.66503759777142 1.7393658414253607e-16 -2.574150065787919e-33 -1.6958816953897266e-15 -4.582543624039141 8.869572630318379 46.84823381890867 0.5792103368902048 -9.802681600444142 -22.149012323788586 7.951386703658792e-16 2.0690185772110117e-32 2.9817700138720468e-15
-0.21942099928855896 0.21377849578857422 3.6259989738464355 -1.3573927327533226 -13.562310456057638 -157.64199297821187 3.876265747870309e-07 5.203702953257042e-07 -1.4402426311638716 92.72267393712784 -8.84384439348176 -168.91012667235756 -1.0398683684176633e-07 9.258078337237628e-08 67.12636848280398 -6.3611093629270335e-15 0.0 0.0 -114.87621582933338 -33.3463972422077 118.18130691452687 -4.561928160090338e-06 -2.5556652046398833e-06 -123.55188914974524 3.1805546814635168e-15 0.0 0.0 -0.13768732940820075 7.5802018056008045 -52.8684903785146 13.60755290561438 -14.234328343927523 70.06930822803565 -9.93923337957349e-17 2.5404746332161252e-33 -2.9289678365430628e-15 -3.324161334863912 9.145988208902304 44.409745820837685 -0.06492240651580254 -9.548897155214531 -20.855973448262844 0.0 0.0 -6.957463365701443e-15
-0.21923470497131348 0.21316669881343842 3.626168966293335 -1.321377127841765 -13.57901206011653 -157.3948645317154 -2.4942850378192163e-07 -1.041692974844266e-06 -1.4593786983279926 93.06792180238257 -8.125433620227946 -168.61772448936964 -1.7578716381891314e-06 -5.290016612081141e-06 66.69989547117198 6.3611093629270335e-15 -1.7655625192200634e-31 -3.1805546814635168e-15 -115.20241787014548 -34.183030370053416 131.19389711267203 3.1393299608482607e-06 -5.752459074085829e-06 -130.36455210425044 -4.770832022195275e-15 0.0 0.0 0.1270759411477267 7.680531027181022 -54.01690249823212 13.712586700337912 -14.472525988867012 71.44235693037312 1.987846675914698e-16 4.9696166897867443e-17 -1.661715580647443e-15 -3.5322524182336044 9.102718467576295 44.81011761466387 -5.218166100478002 -6.65944433093184 -19.468472325866596 0.0 0.0 -6.5598940305185035e-15
-0.21915489435195923 0.21236920356750488 3.626657009124756 -1.2901905614840206 -13.620847377305763 -156.98751383812078 -4.38972873777485e-07 -1.5375567090936527e-06 -1.8803736765962775 92.05743907749833 -7.954186321143174 -165.81675312440558 3.849899717116651e-07 2.894922669035997e-06 62.783645970721786 0.0 6.3611093629270335e-15 0.0 -117.4253399230279 -35.868829197190664 129.7634350838768 -5.1597423624801695e-09 1.447973907716198e-06 -131.30435146747365 0.0 0.0 -6.3611093629270335e-15 0.2094373445152215 7.523901942162074 -54.15737432579987 13.500886411340735 -14.535381168884186 71.75483322256552 1.7393658414253607e-16 4.969616689786746e-17 6.879813104923525e-15 -3.6198336847310384 9.103638230680149 44.931674894964964 -5.284018142620682 -6.921462567042825 -20.303323088938505 0.0 0.0 8.94531004161614e-15
-0.21881160140037537 0.21172280609607697 3.626091957092285 -1.322723822229366 -13.601574442946847 -157.3985061020084 -1.0850170198092198e-08 6.609897880621852e-07 -1.5132424263775415 91.04437379116384 -5.181165988800172 -165.82255641343042 8.795868522469015e-07 2.954120742521225e-06 63.87170937330675 -6.361109362927033e-15 -1.7655625192200634e-31 3.1805546814635164e-15 -114.49790138285141 -34.12068270420996 130.9479251425479 -1.2138417654666548e-07 -6.492664654894071e-06 -124.40457834198001 -1.5902773407317588e-15 4.4139062980501586e-32 -3.1805546814635176e-15 0.14452146810925803 7.702127381077223 -54.50321024000904 13.55162892492478 -14.488927757557658 70.81080699856292 2.2363275104040355e-16 -2.981770013872048e-16 -3.157259603230142e-15 -3.8935439646001475 8.879474016096754 45.39078202644745 2.23244386427802 -11.091292570013009 -22.14429383428219 7.951386703658791e-16 -1.517280289954742e-32 -2.1866313435061676e-15
-0.21866090595722198 0.21165579557418823 3.626012086868286 -1.3090518976941907 -13.469069822996273 -157.43757643983557 -1.8105827289749005e-07 1.0655156771249525e-07 -1.7346378388797887 92.87280878535063 -8.851523736008012 -171.58257492843452 -4.718063689601946e-06 -4.744927445828702e-06 70.59052449776706 6.361109362927033e-15 0.0 0.0 -117.31367911409879 -33.823268328710036 114.69525031836865 -3.5464943121919664e-06 3.715299360594187e-06 -119.47102596183929 0.0 0.0 6.3611093629270335e-15 0.32387233817379646 7.928168800545599 -55.73518734833677 13.766020462549651 -14.294578541012614 70.44418783576579 1.987846675914698e-16 -8.47004480045758e-33 -4.882648397715477e-15 -3.590150171251171 9.189532691562809 45.12362553559165 1.4922790218846167 -10.804618207677679 -21.598966151308833 0.0 0.0 -7.951386703658792e-16
-0.21888180077075958 0.21165789663791656 3.6258749961853027 -1.0301641209228034 -13.457618241210058 -157.2608203691161 -1.947414617812623e-07 -4.363344681646918e-07 -1.7732941488331784 93.21900133220915 -8.870294496728484 -171.57862341253352 -3.7295962895352395e-06 1.8847527163097207e-06 70.00542478549492 -1.7655625192200634e-31 6.361109362927035e-15 3.1805546814635176e-15 -117.0269145687631 -33.310045191496386 113.90031387389311 -8.882052973138628e-06 -3.7193830478301515e-06 -120.1412495380703 1.590277340731758e-15 -4.4139062980501586e-32 -3.180554681463516e-15 0.6110818848660007 7.829176604103305 -55.95894954312954 0.9133440654365887 -9.74767401427096 27.80558491118905 -1.490885006936024e-16 1.5902773407317588e-15 2.981770013872048e-16 -3.3386400748943483 9.207721597672895 45.13407108035446 1.5318137647695986 -10.828072564704794 -21.485994466774894 0.0 0.0 1.987846675914698e-16
-0.2181355059146881 0.21105819940567017 3.625394105911255 -1.2189933284548844 -13.611769229921325 -157.39646847212953 1.3518471264950266e-07 -8.461875830567007e-07 -1.0403427484575696 93.13685472562206 -9.755491692517326 -169.94701058011657 -1.7586021690289259e-06 -1.5883307045459137e-06 68.47537948127007 0.0 0.0 0.0 -116.62183324455094 -31.73904156735899 113.46973203801224 2.563038077715001e-07 -6.134967229778791e-06 -121.51503082281918 -1.5902773407317584e-15 3.1805546814635168e-15 3.1805546814635168e-15 0.4454728041976901 7.65269169335921 -55.7389891976748 0.9806627825981826 -9.712620452954623 28.029452756721902 8.448348372637468e-16 7.327774127622334e-34 9.939233379573492e-17 -3.656584023776401 9.128746805009994 45.56286352848681 0.28534074464715087 -10.776261238298833 -22.703567652765443 1.5902773407317584e-15 -1.5902773407317584e-15 1.3914926731402886e-15
-0.21733640134334564 0.20968499779701233 3.6244850158691406 -1.3008180891626924 -13.920797397154413 -157.43782290088595 2.1336834750268557e-07 6.789634922186595e-07 -0.717650381703797 92.90769315174883 -10.54260103753371 -169.39684862247438 -9.075035333548881e-07 1.0095366981500067e-06 69.19664510051166 1.2722218725854067e-14 -6.3611093629270335e-15 7.062250076880254e-31 -117.3526632998778 -31.830051256368876 113.68717447153031 2.816999195067803e-06 -1.5565651290704645e-06 -123.03073659590721 -4.7708320221952736e-15 6.361109362927033e-15 -6.361109362927033e-15 0.28307230515901877 7.33798432696213 -55.25630679301819 -1.2703325967487362 -11.219889921731214 28.65889418413338 8.696829207126801e-16 -7.543296896081814e-34 -9.939233379573489e-17 -3.9369873214075986 8.842588880687625 45.850015093369 0.9270872380641768 -10.608570256580402 -22.171998653900424 5.517382872562698e-33 -1.5902773407317584e-15 3.975693351829396e-16
-0.21724249422550201 0.20906640589237213 3.6240270137786865 -1.3442263782474202 -14.058787663394616 -157.27865498560124 2.40866334959602e-07 2.355973764022386e-06 -0.8045356663135752 92.59340012572859 -10.079058140625271 -169.21086033810943 -1.1849442957200525e-06 -8.43280237342276e-07 69.13509439587473 0.0 0.0 0.0 -117.00129655737122 -31.191057175844257 114.64435873278384 4.331658318026159e-06 -9.055005419040697e-07 -124.26253416202094 1.7655625192200634e-31 3.1805546814635168e-15 -6.3611093629270335e-15 0.1882645925439433 7.008176237843212 -54.61572971310541 -1.9750020622029174 -11.150819653766437 27.84366950504475 -6.708982531212105e-16 -1.1638229496811941e-33 1.987846675914698e-16 -4.060393772448145 8.817354123433581 46.04248836909313 0.7692478190179358 -10.495101064100774 -22.125913570660845 0.0 0.0 -9.93923337957349e-16
-0.21749989688396454 0.2092496007680893 3.6239728927612305 -1.3685889250734597 -14.063758250622248 -156.73320673507803 -4.38119557431974e-07 1.1725975585751954e-07 -0.8752282857239523 93.54109921453077 -11.314805122706092 -168.51847082832134 9.14337412725885e-07 2.3734024761827792e-06 66.0051695559136 6.3611093629270335e-15 0.0 0.0 -117.5726363768991 -30.507573109096633 117.28641814472172 2.319748060768499e-06 -2.8725090605121287e-06 -124.89689505512843 -3.1805546814635164e-15 -8.827812596100317e-32 3.1805546814635164e-15 0.11373797372436421 6.957210064042395 -54.44694127802911 -2.4415656617319303 -10.054339150381699 24.974937315240133 -6.957463365701443e-16 2.4138550067461805e-33 -3.975693351829396e-16 -4.368251911413193 8.988893094979627 47.29157365632054 0.7177858288647364 -10.811219781867706 -22.96679703575361 -4.965644585306429e-32 1.5902773407317582e-15 3.578124016646456e-15
